<svg xmlns="http://www.w3.org/2000/svg" xmlns:xlink="http://www.w3.org/1999/xlink" width="512" height="512" viewBox="0 0 135.46667 135.46666"><defs><linearGradient id="a"><stop offset="0" stop-color="#e4301a"/><stop offset="1" stop-color="#614aff" stop-opacity="0"/></linearGradient><filter id="c" color-interpolation-filters="sRGB"><feFlood flood-opacity=".643" flood-color="#000" result="flood"/><feComposite in="flood" in2="SourceGraphic" operator="in" result="composite1"/><feGaussianBlur in="composite1" stdDeviation="2" result="blur"/><feOffset dx="2" dy="2" result="offset"/><feComposite in="SourceGraphic" in2="offset" result="composite2"/></filter><linearGradient xlink:href="#a" id="b" x1="110" y1="1072.52" x2="280" y2="932.52" gradientUnits="userSpaceOnUse" gradientTransform="translate(22.5 -956.208)"/></defs><path d="M234.102 15.121c-1.914-.009-4.102.008-6.602.008H79.193c-35 0-56.693 21.693-56.693 56.693v75.59c0 18.898 0 18.899 18.898 18.899H192.5c30 0 55-25 55-55V34.027c0-17.5 0-18.843-13.398-18.906zM47.5 116.311h5v10h10v-10h5v10h10v5h-10v10h10v5h-10v10h-5v-10h-10v10h-5v-10h-10v-5h10v-10h-10v-5h10zm5 15v10h10v-10z" transform="matrix(.50173 0 0 .50173 0 22.22)" fill="url(#b)" filter="url(#c)"/></svg>