<?xml version="1.0" encoding="UTF-8" standalone="no"?>
<svg
   xmlns:dc="http://purl.org/dc/elements/1.1/"
   xmlns:cc="http://creativecommons.org/ns#"
   xmlns:rdf="http://www.w3.org/1999/02/22-rdf-syntax-ns#"
   xmlns:svg="http://www.w3.org/2000/svg"
   xmlns="http://www.w3.org/2000/svg"
   xmlns:xlink="http://www.w3.org/1999/xlink"
   xmlns:sodipodi="http://sodipodi.sourceforge.net/DTD/sodipodi-0.dtd"
   xmlns:inkscape="http://www.inkscape.org/namespaces/inkscape"
   width="280"
   height="280"
   viewBox="0 0 280 280"
   version="1.1"
   id="svg28"
   sodipodi:docname="Stig.svg"
   inkscape:export-filename="/home/zbrown/Pictures/Stig.svg.png"
   inkscape:export-xdpi="175.53999"
   inkscape:export-ydpi="175.53999"
   inkscape:version="0.92.2 2405546, 2018-03-11">
  <metadata
     id="metadata32">
    <rdf:RDF>
      <cc:Work
         rdf:about="">
        <dc:format>image/svg+xml</dc:format>
        <dc:type
           rdf:resource="http://purl.org/dc/dcmitype/StillImage" />
        <dc:title>Stig</dc:title>
      </cc:Work>
    </rdf:RDF>
  </metadata>
  <sodipodi:namedview
     pagecolor="#ffffff"
     bordercolor="#666666"
     borderopacity="1"
     objecttolerance="10"
     gridtolerance="10"
     guidetolerance="10"
     inkscape:pageopacity="0"
     inkscape:pageshadow="2"
     inkscape:window-width="1366"
     inkscape:window-height="704"
     id="namedview30"
     showgrid="true"
     inkscape:pagecheckerboard="true"
     showguides="true"
     inkscape:zoom="1.88"
     inkscape:cx="140.35889"
     inkscape:cy="140.39362"
     inkscape:window-x="0"
     inkscape:window-y="27"
     inkscape:window-maximized="1"
     inkscape:current-layer="Group">
    <inkscape:grid
       type="xygrid"
       id="grid839" />
  </sodipodi:namedview>
  <!-- Generator: Sketch 49.3 (51167) - http://www.bohemiancoding.com/sketch -->
  <title
     id="title2">Stig</title>
  <desc
     id="desc4">Created with Sketch.</desc>
  <path
     style="opacity:1;fill:url(#linearGradient849);fill-opacity:1;fill-rule:nonzero;stroke:none;stroke-width:1.48000002;stroke-linecap:round;stroke-linejoin:round;stroke-miterlimit:4;stroke-dasharray:none;stroke-opacity:1;paint-order:normal;filter:url(#filter1090)"
     d="M 10,40 C 10,15 15,10 40,10 h 200 c 25,0 30,5 30,30 v 200 c 0,25 -5,30 -30,30 H 40 c -25,0 -30,-5 -30,-30 z"
     id="rect841"
     inkscape:connector-curvature="0"
     sodipodi:nodetypes="ccccccccc" />
  <defs
     id="defs13">
    <linearGradient
       inkscape:collect="always"
       id="linearGradient847">
      <stop
         style="stop-color:#333333;stop-opacity:0.78431374"
         offset="0"
         id="stop843" />
      <stop
         style="stop-color:#9b9b9b;stop-opacity:0.78431374"
         offset="1"
         id="stop845" />
    </linearGradient>
    <linearGradient
       x1="106.49349"
       y1="64.733482"
       x2="51.254883"
       y2="56.150963"
       id="linearGradient-1"
       gradientTransform="scale(0.94165046,1.0619652)"
       gradientUnits="userSpaceOnUse">
      <stop
         stop-color="#3023AE"
         offset="0%"
         id="stop6" />
      <stop
         stop-color="#53A0FD"
         offset="47.5247532%"
         id="stop8" />
      <stop
         stop-color="#CD16F4"
         offset="100%"
         id="stop10" />
    </linearGradient>
    <linearGradient
       inkscape:collect="always"
       xlink:href="#linearGradient847"
       id="linearGradient849"
       x1="90"
       y1="90"
       x2="230"
       y2="20"
       gradientUnits="userSpaceOnUse"
       gradientTransform="translate(10,10)" />
    <filter
       style="color-interpolation-filters:sRGB;"
       inkscape:label="Drop Shadow"
       id="filter1090">
      <feFlood
         flood-opacity="0.784314"
         flood-color="rgb(0,0,0)"
         result="flood"
         id="feFlood1080" />
      <feComposite
         in="flood"
         in2="SourceGraphic"
         operator="in"
         result="composite1"
         id="feComposite1082" />
      <feGaussianBlur
         in="composite1"
         stdDeviation="5"
         result="blur"
         id="feGaussianBlur1084" />
      <feOffset
         dx="1"
         dy="1"
         result="offset"
         id="feOffset1086" />
      <feComposite
         in="SourceGraphic"
         in2="offset"
         operator="over"
         result="composite2"
         id="feComposite1088" />
    </filter>
  </defs>
  <g
     id="Page-1"
     style="fill:none;fill-rule:evenodd;stroke:none;stroke-width:1"
     transform="translate(14.629997,14.629997)">
    <g
       id="Stig"
       transform="translate(7,7)">
      <g
         id="Group">
        <g
           id="Base"
           transform="translate(82,54)"
           style="fill:#ffdcb7;fill-rule:nonzero">
          <path
             d="M 47.89,180.78051 46.53,49.180509 v -5.920001 h 46 v -17.46 C 92.53,12.520509 89.05,5.3205085 69.59,1.8805085 62.340521,0.65383264 55.002488,0.02504946 47.65,5.0848072e-4 39.612414,-0.02047861 31.586281,0.60823515 23.65,1.8805085 11.13,3.9605085 0.53,13.340509 0.53,25.800508 v 43.78 C 0.53,71.710509 0.35,122.99051 0,176.93051 Z M 72.53,14.110509 c 3.558412,-0.05681 6.798338,2.042452 8.200561,5.31343 1.402222,3.270978 0.688679,7.065036 -1.806045,9.603121 -2.494724,2.538086 -6.275924,3.316895 -9.570577,1.97124 C 66.059286,29.652646 63.904511,26.449371 63.9,22.890508 63.86669,18.086151 67.725781,14.15998 72.53,14.110509 Z"
             id="Shape"
             inkscape:connector-curvature="0" />
        </g>
        <path
           d="m 80.465922,113.75889 55.526738,17.94666 c -3.62348,5.59235 -5.45619,9.75983 -5.49812,12.50242 -0.0419,2.7426 0.79323,31.67328 2.50546,86.79203 H 79 c 2.463617,-62.65948 3.695426,-95.75763 3.695426,-99.29445 0,-3.53683 -0.743168,-9.51904 -2.229504,-17.94666 z"
           id="Rectangle-2"
           inkscape:connector-curvature="0"
           style="fill:#f0f0f0" />
        <g
           id="helmet"
           transform="rotate(-17,188.33647,-176.02259)">
          <path
             d="M 20.896813,47.073403 45.62422,83.662654 c 0.301222,0.44572 0.3781,0.628827 0.427281,0.845173 0.04918,0.216346 0.04607,0.429545 -0.0094,0.644366 -0.05546,0.214821 -0.137642,0.395611 -0.451721,0.832367 l -10.565311,14.69205 c -0.160707,0.22348 -0.286275,0.36083 -0.426584,0.47135 -0.140308,0.11052 -0.290555,0.18754 -0.462203,0.23693 -0.171647,0.0494 -0.356471,0.0711 -0.631733,0.0711 h -0.06639 c -0.605346,0 -1.135138,-0.40679 -1.291443,-0.99161 L 18.204873,48.300616 c -0.213906,-0.800335 0.261488,-1.622539 1.061823,-1.836445 0.617682,-0.165089 1.272115,0.0795 1.630117,0.609232 z"
             id="Rectangle-Copy"
             transform="rotate(-43,32.119912,73.934617)"
             inkscape:connector-curvature="0"
             style="fill:#000000" />
          <path
             d="M 1.2208922,61.085799 C -3.6601999,59 5.5626655,0 38.54411,0 71.525555,0 78.785022,10.484962 89.754212,22.536124 96.032452,29.433633 104.12414,44.281066 102.87023,51.357168 100.60984,64.113053 97.046985,84.945922 97.728015,86.962603 101.60989,98.457692 81.485836,100.75663 76.214008,118 74.765464,122.73797 32.299886,74.36654 1.2208922,61.085799 Z"
             id="Path-2"
             inkscape:connector-curvature="0"
             style="fill:#f3f3f3;stroke:#979797" />
          <circle
             id="Oval-3"
             cx="49.907055"
             cy="66.158638"
             r="1.5"
             style="fill:#130808;fill-opacity:0.1" />
          <rect
             id="Rectangle"
             transform="rotate(-34,72,98)"
             x="71"
             y="86"
             width="2"
             height="24"
             rx="1"
             style="fill:#000000;fill-opacity:0.1" />
          <path
             d="M 103,50.750538 C 78.149668,38.25018 64.367164,32 61.652489,32 c -4.072013,0 -12.432446,6.398241 -4.072013,18.750538 5.573622,8.234865 18.937087,20.40493 40.090396,36.510194 z"
             id="Path-3"
             inkscape:connector-curvature="0"
             style="fill:url(#linearGradient-1)" />
        </g>
        <path
           style="color:#000000;font-style:normal;font-variant:normal;font-weight:normal;font-stretch:normal;font-size:medium;line-height:normal;font-family:sans-serif;font-variant-ligatures:normal;font-variant-position:normal;font-variant-caps:normal;font-variant-numeric:normal;font-variant-alternates:normal;font-feature-settings:normal;text-indent:0;text-align:start;text-decoration:none;text-decoration-line:none;text-decoration-style:solid;text-decoration-color:#000000;letter-spacing:normal;word-spacing:normal;text-transform:none;writing-mode:lr-tb;direction:ltr;text-orientation:mixed;dominant-baseline:auto;baseline-shift:baseline;text-anchor:start;white-space:normal;shape-padding:0;clip-rule:nonzero;display:inline;overflow:visible;visibility:visible;opacity:1;isolation:auto;mix-blend-mode:normal;color-interpolation:sRGB;color-interpolation-filters:linearRGB;solid-color:#000000;solid-opacity:1;vector-effect:none;fill:#000000;fill-opacity:1;fill-rule:nonzero;stroke:#ffffff;stroke-width:1;stroke-linecap:butt;stroke-linejoin:miter;stroke-miterlimit:4;stroke-dasharray:none;stroke-dashoffset:0;stroke-opacity:1;color-rendering:auto;image-rendering:auto;shape-rendering:auto;text-rendering:auto;enable-background:accumulate"
           d="M 118.36914,-7 C 49.218035,-7 -7,49.218035 -7,118.36914 c 0,69.15111 56.218035,125.37109 125.36914,125.37109 69.15111,0 125.37109,-56.21998 125.37109,-125.37109 C 243.74023,49.218035 187.52025,-7 118.36914,-7 Z m 0,15 c 61.0445,0 110.37109,49.324637 110.37109,110.36914 0,61.0445 -49.32659,110.37109 -110.37109,110.37109 C 57.324637,228.74023 8,179.41364 8,118.36914 8,57.324637 57.324637,8 118.36914,8 Z"
           id="Oval"
           inkscape:connector-curvature="0" />
      </g>
    </g>
  </g>
</svg>
